M48
; DRILL file {KiCad (5.1.9)-1} date 05/13/21 10:23:43
; FORMAT={-:-/ absolute / metric / decimal}
; #@! TF.CreationDate,2021-05-13T10:23:43+02:00
; #@! TF.GenerationSoftware,Kicad,Pcbnew,(5.1.9)-1
; #@! TF.FileFunction,Plated,1,2,PTH
FMAT,2
METRIC
T1C0.500
T2C0.600
T3C0.850
T4C1.000
%
G90
G05
T1
X20.955Y-30.099
X27.585Y-44.603
X28.956Y-28.956
X29.21Y-24.13
X30.226Y-28.956
X31.496Y-41.148
X33.02Y-41.148
X33.782Y-44.196
X36.349Y-43.915
X36.551Y-27.457
X39.726Y-42.57
X39.878Y-39.878
X41.402Y-26.416
X41.91Y-20.066
X42.42Y-49.51
X43.053Y-26.797
X44.35Y-50.76
X47.433Y-39.689
X47.498Y-46.736
X48.26Y-36.83
X49.53Y-25.146
T3
X20.258Y-35.27
X20.258Y-40.27
T4
X17.018Y-20.066
X17.018Y-22.606
X28.956Y-48.26
X28.956Y-50.8
X31.496Y-48.26
X31.496Y-50.8
X34.036Y-48.26
X34.036Y-50.8
X36.576Y-48.26
X36.576Y-50.8
X39.116Y-48.26
X39.116Y-50.8
T2
G00X17.209Y-34.27
M15
G01X17.909Y-34.27
M16
G05
G00X17.909Y-41.27
M15
G01X17.209Y-41.27
M16
G05
T0
M30
